<mxfile host="app.diagrams.net" modified="2024-03-12T04:51:38.144Z" agent="Mozilla/5.0 (Windows NT 10.0; Win64; x64) AppleWebKit/537.36 (KHTML, like Gecko) Chrome/121.0.0.0 Safari/537.36 OPR/107.0.0.0" etag="YP1yxt8Uw_4-3e1PxS3P" version="24.0.5" type="github">
  <diagram id="C5RBs43oDa-KdzZeNtuy" name="Page-1">
    <mxGraphModel dx="1836" dy="581" grid="1" gridSize="10" guides="1" tooltips="1" connect="1" arrows="1" fold="1" page="1" pageScale="1" pageWidth="827" pageHeight="1169" math="0" shadow="0">
      <root>
        <mxCell id="WIyWlLk6GJQsqaUBKTNV-0" />
        <mxCell id="WIyWlLk6GJQsqaUBKTNV-1" parent="WIyWlLk6GJQsqaUBKTNV-0" />
        <mxCell id="H_y5KWAI4GuCOlJa-fVT-4" value="" style="edgeStyle=orthogonalEdgeStyle;rounded=0;orthogonalLoop=1;jettySize=auto;html=1;" edge="1" parent="WIyWlLk6GJQsqaUBKTNV-1" source="H_y5KWAI4GuCOlJa-fVT-2" target="H_y5KWAI4GuCOlJa-fVT-3">
          <mxGeometry relative="1" as="geometry" />
        </mxCell>
        <mxCell id="H_y5KWAI4GuCOlJa-fVT-2" value="INICIO" style="rounded=1;whiteSpace=wrap;html=1;fillColor=#d5e8d4;strokeColor=#82b366;" vertex="1" parent="WIyWlLk6GJQsqaUBKTNV-1">
          <mxGeometry x="364" y="30" width="100" height="100" as="geometry" />
        </mxCell>
        <mxCell id="H_y5KWAI4GuCOlJa-fVT-7" value="" style="edgeStyle=orthogonalEdgeStyle;rounded=0;orthogonalLoop=1;jettySize=auto;html=1;" edge="1" parent="WIyWlLk6GJQsqaUBKTNV-1" source="H_y5KWAI4GuCOlJa-fVT-3" target="H_y5KWAI4GuCOlJa-fVT-6">
          <mxGeometry relative="1" as="geometry" />
        </mxCell>
        <mxCell id="H_y5KWAI4GuCOlJa-fVT-3" value="&lt;span id=&quot;docs-internal-guid-c5432fa6-7fff-ad2d-fea2-f3d3caa33e65&quot;&gt;&lt;span style=&quot;font-size: 11pt; font-family: Arial, sans-serif; background-color: transparent; font-variant-numeric: normal; font-variant-east-asian: normal; font-variant-alternates: normal; font-variant-position: normal; vertical-align: baseline; white-space-collapse: preserve;&quot;&gt;Bienvenido a la Calculadora de Vuelos ICESI Flight 1.0.&lt;/span&gt;&lt;/span&gt;" style="shape=parallelogram;perimeter=parallelogramPerimeter;whiteSpace=wrap;html=1;fixedSize=1;" vertex="1" parent="WIyWlLk6GJQsqaUBKTNV-1">
          <mxGeometry x="270" y="150" width="288" height="80" as="geometry" />
        </mxCell>
        <mxCell id="H_y5KWAI4GuCOlJa-fVT-9" value="" style="edgeStyle=orthogonalEdgeStyle;rounded=0;orthogonalLoop=1;jettySize=auto;html=1;" edge="1" parent="WIyWlLk6GJQsqaUBKTNV-1" source="H_y5KWAI4GuCOlJa-fVT-6" target="H_y5KWAI4GuCOlJa-fVT-8">
          <mxGeometry relative="1" as="geometry" />
        </mxCell>
        <mxCell id="H_y5KWAI4GuCOlJa-fVT-6" value="&lt;span id=&quot;docs-internal-guid-c5432fa6-7fff-ad2d-fea2-f3d3caa33e65&quot;&gt;&lt;span style=&quot;font-size: 11pt; font-family: Arial, sans-serif; background-color: transparent; font-variant-numeric: normal; font-variant-east-asian: normal; font-variant-alternates: normal; font-variant-position: normal; vertical-align: baseline; white-space-collapse: preserve;&quot;&gt;# Te presentamos las siguientes opciones, ingresa:&lt;/span&gt;&lt;/span&gt;&lt;div&gt;&lt;span&gt;&lt;span style=&quot;font-size: 11pt; font-family: Arial, sans-serif; background-color: transparent; font-variant-numeric: normal; font-variant-east-asian: normal; font-variant-alternates: normal; font-variant-position: normal; vertical-align: baseline; white-space-collapse: preserve;&quot;&gt;1. Si viajas solo&lt;/span&gt;&lt;/span&gt;&lt;div&gt;&lt;span&gt;&lt;span style=&quot;font-size: 11pt; font-family: Arial, sans-serif; background-color: transparent; font-variant-numeric: normal; font-variant-east-asian: normal; font-variant-alternates: normal; font-variant-position: normal; vertical-align: baseline; white-space-collapse: preserve;&quot;&gt;2. Si viajas acompañado&lt;/span&gt;&lt;/span&gt;&lt;div&gt;&lt;span&gt;&lt;span style=&quot;font-size: 11pt; font-family: Arial, sans-serif; background-color: transparent; font-variant-numeric: normal; font-variant-east-asian: normal; font-variant-alternates: normal; font-variant-position: normal; vertical-align: baseline; white-space-collapse: preserve;&quot;&gt;3. &lt;/span&gt;&lt;/span&gt;&lt;span style=&quot;background-color: transparent; font-family: Arial, sans-serif; font-size: 11pt; white-space-collapse: preserve;&quot;&gt;Salir del programa&lt;/span&gt;&lt;/div&gt;&lt;/div&gt;&lt;/div&gt;" style="shape=parallelogram;perimeter=parallelogramPerimeter;whiteSpace=wrap;html=1;fixedSize=1;" vertex="1" parent="WIyWlLk6GJQsqaUBKTNV-1">
          <mxGeometry x="255" y="250" width="318" height="90" as="geometry" />
        </mxCell>
        <mxCell id="H_y5KWAI4GuCOlJa-fVT-11" value="" style="edgeStyle=orthogonalEdgeStyle;rounded=0;orthogonalLoop=1;jettySize=auto;html=1;" edge="1" parent="WIyWlLk6GJQsqaUBKTNV-1" source="H_y5KWAI4GuCOlJa-fVT-8" target="H_y5KWAI4GuCOlJa-fVT-10">
          <mxGeometry relative="1" as="geometry" />
        </mxCell>
        <mxCell id="H_y5KWAI4GuCOlJa-fVT-13" value="1" style="edgeLabel;html=1;align=center;verticalAlign=middle;resizable=0;points=[];" vertex="1" connectable="0" parent="H_y5KWAI4GuCOlJa-fVT-11">
          <mxGeometry x="-0.1153" y="2" relative="1" as="geometry">
            <mxPoint as="offset" />
          </mxGeometry>
        </mxCell>
        <mxCell id="H_y5KWAI4GuCOlJa-fVT-17" value="" style="edgeStyle=orthogonalEdgeStyle;rounded=0;orthogonalLoop=1;jettySize=auto;html=1;" edge="1" parent="WIyWlLk6GJQsqaUBKTNV-1" source="H_y5KWAI4GuCOlJa-fVT-8" target="H_y5KWAI4GuCOlJa-fVT-16">
          <mxGeometry relative="1" as="geometry" />
        </mxCell>
        <mxCell id="H_y5KWAI4GuCOlJa-fVT-18" value="2" style="edgeLabel;html=1;align=center;verticalAlign=middle;resizable=0;points=[];" vertex="1" connectable="0" parent="H_y5KWAI4GuCOlJa-fVT-17">
          <mxGeometry x="-0.12" relative="1" as="geometry">
            <mxPoint as="offset" />
          </mxGeometry>
        </mxCell>
        <mxCell id="H_y5KWAI4GuCOlJa-fVT-23" style="edgeStyle=orthogonalEdgeStyle;rounded=0;orthogonalLoop=1;jettySize=auto;html=1;" edge="1" parent="WIyWlLk6GJQsqaUBKTNV-1" source="H_y5KWAI4GuCOlJa-fVT-8" target="H_y5KWAI4GuCOlJa-fVT-22">
          <mxGeometry relative="1" as="geometry" />
        </mxCell>
        <mxCell id="H_y5KWAI4GuCOlJa-fVT-24" value="3" style="edgeLabel;html=1;align=center;verticalAlign=middle;resizable=0;points=[];" vertex="1" connectable="0" parent="H_y5KWAI4GuCOlJa-fVT-23">
          <mxGeometry x="-0.1487" y="-2" relative="1" as="geometry">
            <mxPoint as="offset" />
          </mxGeometry>
        </mxCell>
        <mxCell id="H_y5KWAI4GuCOlJa-fVT-8" value="Selección" style="rhombus;whiteSpace=wrap;html=1;" vertex="1" parent="WIyWlLk6GJQsqaUBKTNV-1">
          <mxGeometry x="349" y="360" width="130" height="130" as="geometry" />
        </mxCell>
        <mxCell id="H_y5KWAI4GuCOlJa-fVT-10" value="Viajar solo" style="whiteSpace=wrap;html=1;" vertex="1" parent="WIyWlLk6GJQsqaUBKTNV-1">
          <mxGeometry x="573" y="395" width="120" height="60" as="geometry" />
        </mxCell>
        <mxCell id="H_y5KWAI4GuCOlJa-fVT-26" value="" style="edgeStyle=orthogonalEdgeStyle;rounded=0;orthogonalLoop=1;jettySize=auto;html=1;" edge="1" parent="WIyWlLk6GJQsqaUBKTNV-1" source="H_y5KWAI4GuCOlJa-fVT-16" target="H_y5KWAI4GuCOlJa-fVT-25">
          <mxGeometry relative="1" as="geometry" />
        </mxCell>
        <mxCell id="H_y5KWAI4GuCOlJa-fVT-16" value="Viajar con amigos" style="whiteSpace=wrap;html=1;" vertex="1" parent="WIyWlLk6GJQsqaUBKTNV-1">
          <mxGeometry x="144" y="395" width="120" height="60" as="geometry" />
        </mxCell>
        <mxCell id="H_y5KWAI4GuCOlJa-fVT-22" value="FIN" style="rounded=1;whiteSpace=wrap;html=1;fillColor=#f8cecc;strokeColor=#b85450;" vertex="1" parent="WIyWlLk6GJQsqaUBKTNV-1">
          <mxGeometry x="364" y="1020" width="100" height="100" as="geometry" />
        </mxCell>
        <mxCell id="H_y5KWAI4GuCOlJa-fVT-28" value="" style="edgeStyle=orthogonalEdgeStyle;rounded=0;orthogonalLoop=1;jettySize=auto;html=1;" edge="1" parent="WIyWlLk6GJQsqaUBKTNV-1" source="H_y5KWAI4GuCOlJa-fVT-25" target="H_y5KWAI4GuCOlJa-fVT-27">
          <mxGeometry relative="1" as="geometry" />
        </mxCell>
        <mxCell id="H_y5KWAI4GuCOlJa-fVT-25" value="¡Muy bien! Empecemos contigo, Miguel. Aproximadamente, ¿cuánto peso en kg llevarás en equipaje?" style="shape=parallelogram;perimeter=parallelogramPerimeter;whiteSpace=wrap;html=1;fixedSize=1;" vertex="1" parent="WIyWlLk6GJQsqaUBKTNV-1">
          <mxGeometry x="-140" y="392.5" width="250" height="65" as="geometry" />
        </mxCell>
        <mxCell id="H_y5KWAI4GuCOlJa-fVT-27" value="Input peso" style="shape=parallelogram;perimeter=parallelogramPerimeter;whiteSpace=wrap;html=1;fixedSize=1;" vertex="1" parent="WIyWlLk6GJQsqaUBKTNV-1">
          <mxGeometry x="-430" y="392.5" width="250" height="65" as="geometry" />
        </mxCell>
      </root>
    </mxGraphModel>
  </diagram>
</mxfile>
